<?xml version="1.0" encoding="UTF-8"?>
<svg version="1.1" xmlns="http://www.w3.org/2000/svg" width="512" height="512">
<path d="M0 0 C1.05441284 0.01027222 1.05441284 0.01027222 2.13012695 0.02075195 C9.36134246 0.24476107 13.34648152 2.16362406 18.75 6.6875 C24.58120881 13.62191048 26.94826273 19.39055857 28.0625 28.4375 C28.76890625 28.11523438 29.4753125 27.79296875 30.203125 27.4609375 C36.46886223 25.21828292 43.65058595 25.50742018 49.8125 28 C58.25695139 32.3905028 64.0189299 38.34483002 67.0625 47.4375 C67.76758916 52.71716838 67.75492506 57.94700601 67.72192383 63.26025391 C67.73039011 64.83807638 67.74104019 66.4158884 67.75369263 67.99368286 C67.78169906 72.24930073 67.77939236 76.50441214 67.77139878 80.76009417 C67.76826202 85.21777214 67.79334219 89.6752921 67.81535339 94.13290405 C67.85272494 102.56160012 67.8649373 110.99013486 67.8679778 119.41890562 C67.87267612 129.01999959 67.90562422 138.62093271 67.94087565 148.22195554 C68.01271889 167.96045209 68.04931233 187.69888278 68.0625 207.4375 C68.85857327 206.19077512 69.65109581 204.94178266 70.44216919 203.69187927 C70.88389528 202.99659842 71.32562138 202.30131758 71.78073311 201.58496761 C73.78533034 198.22647266 75.28961348 194.69682164 76.8046875 191.09765625 C77.48531386 189.5239314 78.16631504 187.95036861 78.84765625 186.37695312 C79.89460363 183.93938331 80.93740802 181.5002169 81.97314453 179.05786133 C88.58089341 163.52448672 95.74974412 151.14571543 111.47265625 143.48046875 C117.5748212 141.02303581 123.05522904 140.07414091 129.5625 140.0625 C130.28308594 140.03800781 131.00367188 140.01351562 131.74609375 139.98828125 C137.30102868 139.95814598 140.47624069 141.30135029 145.0625 144.4375 C149.89634123 149.53262995 151.40024488 154.04486229 151.32919312 160.92675781 C150.85587698 165.38272135 149.01943244 169.15906518 147.14453125 173.1875 C146.73805862 174.09653076 146.331586 175.00556152 145.91279602 175.94213867 C145.0619835 177.84193525 144.20427312 179.73865678 143.33990479 181.63232422 C141.74385941 185.13723346 140.19296347 188.66108515 138.64186096 192.18605042 C136.69208177 196.60950749 134.71911748 201.02262696 132.75 205.4375 C131.88160576 207.38738491 131.01336399 209.33733773 130.14526367 211.28735352 C128.34836801 215.32348698 126.55082861 219.35933288 124.75292969 223.39501953 C121.71211183 230.22237897 118.6785739 237.05296308 115.64582825 243.88391113 C112.330269 251.35148147 109.00989844 258.8169031 105.68791199 266.28161621 C103.27873029 271.69704728 100.87647373 277.11548346 98.4797821 282.53645325 C96.95455521 285.98379788 95.4248094 289.42912539 93.89413452 292.87405396 C93.18935675 294.46291094 92.48648172 296.05261372 91.78579712 297.64328003 C82.43146599 318.87318982 72.78282271 339.78136285 50.0625 349.4375 C49.4025 349.4375 48.7425 349.4375 48.0625 349.4375 C48.0625 358.6775 48.0625 367.9175 48.0625 377.4375 C49.7125 378.0975 51.3625 378.7575 53.0625 379.4375 C56.43556698 382.55739039 57.89752312 386.10128973 58.45556641 390.62109375 C58.55389798 394.2396955 58.49915394 397.81984531 58.375 401.4375 C58.35244141 402.68917969 58.32988281 403.94085938 58.30664062 405.23046875 C58.24804778 408.30073367 58.16605402 411.36847761 58.0625 414.4375 C59.15046875 414.55738281 60.2384375 414.67726563 61.359375 414.80078125 C65.97840833 415.59498213 67.80985805 417.11093437 71.0625 420.4375 C73.99912356 425.17852967 74.49485881 429.23564563 74.45068359 434.69018555 C74.45856903 435.898591 74.45856903 435.898591 74.46661377 437.13140869 C74.47975768 439.77921248 74.47109829 442.42640946 74.4609375 445.07421875 C74.46295926 446.91933812 74.46587154 448.76445672 74.46963501 450.60957336 C74.47405024 454.46871581 74.46765089 458.32764946 74.45361328 462.18676758 C74.43648579 467.13681663 74.4463901 472.08637896 74.46433067 477.03641033 C74.47515944 480.84277531 74.47172698 484.64902441 74.4639473 488.45539284 C74.46194464 490.28107575 74.46440685 492.10676914 74.47138596 493.9324398 C74.47898953 496.47957739 74.4674137 499.02591984 74.45068359 501.57299805 C74.45675629 502.32889725 74.46282898 503.08479645 74.46908569 503.86360168 C74.40707229 508.9498081 74.40707229 508.9498081 72.67300415 511.40412903 C70.54333576 512.77061883 69.08090095 512.83768401 66.5625 512.8125 C65.7890625 512.82023438 65.015625 512.82796875 64.21875 512.8359375 C61.53272955 512.33960763 60.63038224 511.6586665 59.0625 509.4375 C59.0625 508.1175 59.0625 506.7975 59.0625 505.4375 C13.8525 505.4375 -31.3575 505.4375 -77.9375 505.4375 C-78.2675 507.0875 -78.5975 508.7375 -78.9375 510.4375 C-82.1284164 512.5647776 -84.13909774 512.77131412 -87.90234375 512.99609375 C-91.15480943 512.10338244 -92.13499857 510.22067337 -93.9375 507.4375 C-94.31962707 504.76247091 -94.47611745 502.5044601 -94.43920898 499.83666992 C-94.44461197 499.08801163 -94.45001495 498.33935333 -94.45558167 497.56800842 C-94.46805557 495.10092227 -94.4515831 492.63500664 -94.43359375 490.16796875 C-94.43374882 488.44550007 -94.43523911 486.72303104 -94.43800354 485.00056458 C-94.4393871 481.39173948 -94.42684078 477.783312 -94.40405273 474.17456055 C-94.37573217 469.56460256 -94.37838856 464.95530821 -94.39114285 460.34530163 C-94.39812389 456.78748481 -94.39028209 453.22981935 -94.37788582 449.67202187 C-94.37339032 447.97328587 -94.37301778 446.27453351 -94.37695122 444.57579613 C-94.3798857 442.19236802 -94.36324919 439.80982897 -94.34155273 437.42651367 C-94.34605438 436.7337735 -94.35055603 436.04103333 -94.35519409 435.32730103 C-94.26782464 429.504729 -92.97179943 424.03332518 -89.32421875 419.37890625 C-88.76347656 418.92386719 -88.20273438 418.46882813 -87.625 418 C-87.07199219 417.52691406 -86.51898438 417.05382812 -85.94921875 416.56640625 C-83.33822474 415.10120767 -80.88724207 414.79945707 -77.9375 414.4375 C-77.95321045 413.81818604 -77.9689209 413.19887207 -77.98510742 412.56079102 C-78.0481403 409.70728995 -78.08670437 406.85393609 -78.125 404 C-78.15013672 403.02611328 -78.17527344 402.05222656 -78.20117188 401.04882812 C-78.28761154 392.43367473 -77.14313388 384.84331562 -70.9375 378.4375 C-70.2775 378.1075 -69.6175 377.7775 -68.9375 377.4375 C-68.6075 367.2075 -68.2775 356.9775 -67.9375 346.4375 C-69.2575 345.7775 -70.5775 345.1175 -71.9375 344.4375 C-91.53045342 327.53623027 -103.25219183 303.89851266 -106.9375 278.4375 C-107.20041926 274.73458911 -107.23151661 271.04942938 -107.22802734 267.33813477 C-107.23474457 266.28956802 -107.24146179 265.24100128 -107.24838257 264.16065979 C-107.26721044 260.73335906 -107.27127745 257.30625529 -107.2734375 253.87890625 C-107.27987042 251.48282289 -107.28659915 249.08674031 -107.29360962 246.69065857 C-107.30554013 241.68869197 -107.30929424 236.68679426 -107.30810547 231.68481445 C-107.30790123 225.26984428 -107.33533021 218.8553119 -107.36964989 212.4404459 C-107.39184612 207.50172379 -107.39594543 202.56310886 -107.39488602 197.62434196 C-107.39724807 195.2579998 -107.40610539 192.89165495 -107.42155075 190.52536201 C-107.44108521 187.22695767 -107.43542425 183.92952252 -107.42333984 180.63110352 C-107.43457886 179.65288635 -107.44581787 178.67466919 -107.45739746 177.66680908 C-107.39601438 171.09362423 -107.39601438 171.09362423 -105.09463501 167.80039978 C-102.9375 166.4375 -102.9375 166.4375 -99.9375 166.4375 C-99.9375 158.5175 -99.9375 150.5975 -99.9375 142.4375 C-101.5875 142.1075 -103.2375 141.7775 -104.9375 141.4375 C-106.97420701 138.38243949 -107.19206004 137.73693152 -107.22802734 134.29248047 C-107.24078705 133.46086395 -107.25354675 132.62924744 -107.26669312 131.77243042 C-107.26891876 130.87557526 -107.27114441 129.97872009 -107.2734375 129.0546875 C-107.2800943 128.12584747 -107.2867511 127.19700745 -107.29360962 126.24002075 C-107.30374001 124.27136209 -107.30842652 122.30266907 -107.30810547 120.33398438 C-107.31245351 117.34446189 -107.34869878 114.35644625 -107.38671875 111.3671875 C-107.39259212 109.45052585 -107.39655803 107.53385723 -107.3984375 105.6171875 C-107.41280853 104.73247772 -107.42717957 103.84776794 -107.44198608 102.93624878 C-107.3772698 93.99089067 -104.30417286 86.80417286 -97.9375 80.4375 C-90.00022778 74.29251506 -83.11619077 72.9935457 -73.2578125 74.05078125 C-70.9375 74.4375 -70.9375 74.4375 -68.9375 75.4375 C-68.907771 74.4630896 -68.907771 74.4630896 -68.87744141 73.46899414 C-68.78122067 70.47897478 -68.67194101 67.48956352 -68.5625 64.5 C-68.51609375 62.96762695 -68.51609375 62.96762695 -68.46875 61.40429688 C-68.07140724 51.04027311 -67.01822138 42.43525748 -59.9375 34.4375 C-52.34127355 28.07786855 -45.62234168 26.22223535 -35.83984375 26.171875 C-32.8499902 26.44550897 -30.64961405 27.18345828 -27.9375 28.4375 C-27.8446875 26.519375 -27.8446875 26.519375 -27.75 24.5625 C-26.81908475 16.46481259 -23.24975414 9.86756191 -16.9765625 4.69140625 C-11.35192254 1.23257593 -6.60099824 -0.09882917 0 0 Z " fill="#020201" transform="translate(251.9375,-0.4375)"/>
<path d="M0 0 C4.15852674 1.79572746 6.45959891 4.28870914 9 8 C9.49942875 10.83734989 9.49942875 10.83734989 9.49879456 14.00318909 C9.50837189 15.2075058 9.51794922 16.41182251 9.52781677 17.65263367 C9.51807327 18.96552872 9.50832977 20.27842377 9.49829102 21.63110352 C9.50211588 23.03420589 9.50773636 24.43730435 9.51501465 25.84039307 C9.526953 28.8568448 9.52648576 31.87294839 9.51642036 34.8894062 C9.50084997 39.6587335 9.5145434 44.42770361 9.53245544 49.19700623 C9.56326134 58.45796931 9.56477674 67.71882303 9.56280518 76.97982788 C9.56141182 88.7716956 9.57172843 100.56347949 9.6113829 112.35528511 C9.62632713 117.09687411 9.62603904 121.83814675 9.61390507 126.57974064 C9.60919856 129.52775074 9.61670675 132.4756394 9.62744904 135.42362976 C9.63100681 137.44339239 9.61956868 139.46316394 9.60771179 141.4828949 C9.6144693 142.68439178 9.62122681 143.88588867 9.62818909 145.12379456 C9.62760278 146.16814446 9.62701647 147.21249437 9.62641239 148.28849125 C10.0572597 151.41559243 10.74737072 152.80482321 13 155 C16.75684104 155.33543224 19.41996227 155.19334591 23 154 C23.00146656 153.39223661 23.00293312 152.78447323 23.00444412 152.15829277 C23.04151953 137.36001142 23.1005439 122.5619394 23.18390274 107.76385307 C23.2236873 100.60753892 23.25608266 93.45133464 23.27099609 86.29492188 C23.28401574 80.05630613 23.31098805 73.81793219 23.35461307 67.57945263 C23.37722145 64.27710824 23.39082991 60.97512696 23.39188385 57.67269516 C23.3942458 53.983087 23.4212659 50.29442573 23.45410156 46.60498047 C23.44655602 44.96823112 23.44655602 44.96823112 23.43885803 43.29841614 C23.5224145 37.23544615 23.88888981 33.58134587 28 29 C32.24908406 26.16727729 36.01145405 26.23193461 41 27 C44.87690315 28.98187921 47.45274904 31.94677423 49 36 C49.24609566 39.06905746 49.24609566 39.06905746 49.24050903 42.74505615 C49.24221788 43.42225999 49.24392673 44.09946383 49.24568737 44.797189 C49.24898015 47.06509581 49.23798224 49.3327064 49.22705078 51.60058594 C49.22648662 53.22677097 49.22680332 54.8529565 49.22793579 56.47914124 C49.22851012 60.89409738 49.21674287 65.30894508 49.20278788 69.723876 C49.19029384 74.33766062 49.18911106 78.95144766 49.18673706 83.56524658 C49.18051839 92.30225651 49.16410233 101.03921644 49.14403808 109.77620435 C49.12169113 119.72289649 49.11068868 129.66959102 49.10064721 139.61630201 C49.07973645 160.07756259 49.04455294 180.53877815 49 201 C47.49215942 201.48702393 47.49215942 201.48702393 45.95385742 201.98388672 C44.60848903 202.42393307 43.26319686 202.86421248 41.91796875 203.3046875 C41.258573 203.51697998 40.59917725 203.72927246 39.9197998 203.94799805 C27.3946626 208.06785566 18.14285471 214.76032232 9 224 C8.40574219 224.57234375 7.81148438 225.1446875 7.19921875 225.734375 C-0.19968285 233.47230983 -4.79302826 244.44126771 -8.0625 254.5 C-8.27849854 255.14573975 -8.49449707 255.79147949 -8.71704102 256.45678711 C-10.06881941 260.94664324 -10.0756332 264.44967734 -9 269 C-7.23863645 271.18331689 -7.23863645 271.18331689 -5.0546875 271.1953125 C-3.03645833 271.13020833 -1.01822917 271.06510417 1 271 C3.09901878 266.28779357 4.79471942 261.62680655 6.3125 256.6875 C12.01180706 239.12472638 23.64628663 227.82079367 39.234375 218.69140625 C44.79090636 215.92390904 50.8050457 214.83269146 56.82421875 213.4987793 C66.10794325 211.38949892 74.00518567 207.6691255 79.30859375 199.38671875 C84.53756141 190.86611948 88.19626054 181.55862419 92.09594727 172.38012695 C97.73255197 159.16487164 102.89205687 147.18615478 116.875 141.125 C121.46853832 139.5725119 126.2023373 139.51368721 131 140 C131.33 140.33 131.66 140.66 132 141 C131.60776488 146.63823743 130.4744984 150.84073886 128.03515625 155.99609375 C127.57853355 156.97591217 127.57853355 156.97591217 127.11268616 157.9755249 C126.45230718 159.39036985 125.78707721 160.80295879 125.11749268 162.21347046 C123.27152167 166.10496104 121.46437415 170.01449548 119.65234375 173.921875 C119.2704187 174.74314377 118.88849365 175.56441254 118.49499512 176.41056824 C114.22983531 185.60750026 110.17591034 194.89474337 106.125 204.1875 C99.3051427 219.80574096 92.3719802 235.36928203 85.35498047 250.89990234 C84.61939486 252.52828811 83.88387941 254.15670557 83.1484375 255.78515625 C82.79312958 256.57186707 82.43782166 257.35857788 82.07174683 258.16912842 C79.82866561 263.14276177 77.61050408 268.12670004 75.4140625 273.12109375 C75.13934113 273.74465759 74.86461975 274.36822144 74.58157349 275.01068115 C73.34080395 277.82793634 72.10460288 280.6470013 70.87744141 283.47021484 C63.80943427 299.54787258 56.15085538 313.18485186 39.21484375 320.14453125 C37.49713992 320.8044261 35.76992245 321.44048573 34.03125 322.04296875 C31.66397877 322.94474094 31.66397877 322.94474094 30 326 C29.67 337.22 29.34 348.44 29 360 C1.28 360 -26.44 360 -55 360 C-55.495 342.675 -55.495 342.675 -56 325 C-62.53204003 317.0656937 -62.53204003 317.0656937 -70.10205078 311.31591797 C-83.55444143 301.98888098 -90.95219152 280.66095896 -94.04589844 265.22949219 C-95.52460699 256.12961865 -95.28020635 246.94358539 -95.27439499 237.74775505 C-95.27342182 234.34755232 -95.28646041 230.94765881 -95.30337524 227.54750061 C-95.34944204 217.8895189 -95.37429164 208.23157439 -95.38085938 198.57348633 C-95.38585997 192.64621496 -95.41001853 186.71927534 -95.44618607 180.79211617 C-95.45600139 178.53662668 -95.45830663 176.28109172 -95.45301437 174.02558708 C-95.44598192 170.88510098 -95.46314151 167.74561591 -95.48583984 164.60522461 C-95.47766739 163.67173691 -95.46949493 162.73824921 -95.46107483 161.776474 C-95.38563977 156.91626672 -95.38563977 156.91626672 -97.84463501 152.96217346 C-100.10806125 151.90955991 -100.10806125 151.90955991 -103 151 C-103 143.08 -103 135.16 -103 127 C-101.02 126.01 -99.04 125.02 -97 124 C-94.9013427 121.9013427 -95.838429 117.2671373 -95.82421875 114.36328125 C-95.80100921 112.57095194 -95.77689142 110.77863421 -95.75195312 108.98632812 C-95.71690515 106.15332434 -95.68753918 103.3207425 -95.67407227 100.48754883 C-95.65854911 97.75810083 -95.61829818 95.02989832 -95.57421875 92.30078125 C-95.57612717 91.45993484 -95.57803558 90.61908844 -95.58000183 89.75276184 C-95.4687585 84.37541227 -94.57756563 81.26169876 -91 77 C-86.72197761 73.91584433 -83.20011333 73.52753377 -78.12109375 74.28125 C-73.88846758 75.71551007 -71.94826257 79.10347486 -70 83 C-69.89300726 85.76036762 -69.84583387 88.4965696 -69.84228516 91.25756836 C-69.83720444 92.11135574 -69.83212372 92.96514313 -69.82688904 93.84480286 C-69.81617441 95.70219325 -69.80755853 97.55959665 -69.80076981 99.41700554 C-69.78900463 102.35429061 -69.76955887 105.29142706 -69.74765015 108.22865295 C-69.68594749 116.58101482 -69.63193545 124.93336151 -69.59863281 133.28588867 C-69.57772666 138.39114363 -69.54245712 143.49612801 -69.49787521 148.60122871 C-69.48368338 150.54968653 -69.47498563 152.49819221 -69.47182083 154.44669914 C-69.46693044 157.1691013 -69.4438218 159.89078094 -69.41650391 162.61303711 C-69.41951004 163.42197418 -69.42251617 164.23091125 -69.4256134 165.06436157 C-69.39111687 169.26764362 -69.39111687 169.26764362 -67.65756226 172.99684143 C-64.98446017 174.61460586 -63.04546959 174.43506708 -60 174 C-57.3499371 171.94009569 -56.14409623 170.74966953 -55.50336456 167.41622353 C-55.50562672 165.94013902 -55.50562672 165.94013902 -55.50793457 164.43423462 C-55.4998024 163.30149612 -55.49167023 162.16875763 -55.48329163 161.00169373 C-55.49460617 159.7631514 -55.50592072 158.52460907 -55.51757812 157.24853516 C-55.51157236 155.24122671 -55.50556555 153.23391827 -55.49951935 151.22660995 C-55.49689074 149.07066227 -55.50412594 146.91494589 -55.5141449 144.75902176 C-55.53448742 140.26226706 -55.52450154 135.76589277 -55.5098877 131.26913452 C-55.48085422 120.90974704 -55.49157819 110.55047131 -55.50258636 100.19106293 C-55.51226448 90.701064 -55.51352091 81.21126361 -55.48270559 71.72129858 C-55.46934396 67.25363496 -55.47527479 62.78654217 -55.49607086 58.31891274 C-55.50289986 56.20703835 -55.50062298 54.09540863 -55.49427795 51.98353577 C-55.48660505 49.41214556 -55.49314162 46.84065706 -55.51670837 44.2693634 C-55.47134927 37.91979101 -55.4286982 33.74588401 -51 29 C-46.75091594 26.16727729 -42.98854595 26.23193461 -38 27 C-34.10093608 28.99320783 -31.62644062 31.96184238 -30 36 C-29.74666691 38.31383705 -29.74666691 38.31383705 -29.74171448 40.90933228 C-29.73488647 41.89639664 -29.72805847 42.883461 -29.72102356 43.9004364 C-29.72357651 44.97694962 -29.72612946 46.05346283 -29.72875977 47.16259766 C-29.72353302 48.30113693 -29.71830627 49.43967621 -29.71292114 50.61271667 C-29.70267801 53.08503464 -29.6969002 55.55737419 -29.69503975 58.02971268 C-29.69138455 61.93725985 -29.67468264 65.84455132 -29.65428162 69.75204468 C-29.60511861 79.45433701 -29.57417278 89.15667717 -29.55297852 98.85906982 C-29.5350408 107.05972931 -29.50573767 115.26015541 -29.45893669 123.4607048 C-29.44724913 126.05474289 -29.44135602 128.64881355 -29.44125557 131.24287796 C-29.44106462 134.8608445 -29.42288032 138.47830328 -29.40063477 142.09619141 C-29.40521194 143.17675308 -29.40978912 144.25731476 -29.414505 145.37062073 C-29.40485718 146.35204544 -29.39520935 147.33347015 -29.38526917 148.34463501 C-29.38325784 149.20039438 -29.38124651 150.05615376 -29.37917423 150.93784523 C-29.25404674 151.6183563 -29.12891924 152.29886738 -29 153 C-25.50875983 155.32749345 -24.10777749 155.50299316 -20 155 C-17.25452227 152.8985621 -16.12941572 151.71064804 -15.50336456 148.27287388 C-15.50562672 146.6952875 -15.50562672 146.6952875 -15.50793457 145.08583069 C-15.49573631 143.27096413 -15.49573631 143.27096413 -15.48329163 141.41943359 C-15.49438365 140.08178427 -15.50582418 138.74413781 -15.51757812 137.40649414 C-15.51539187 135.99531171 -15.51139453 134.5841311 -15.50572205 133.17295837 C-15.49715867 130.13574637 -15.50093827 127.09888777 -15.5141449 124.06169319 C-15.53447707 119.25857597 -15.52450635 114.4558152 -15.5098877 109.6526947 C-15.48084901 98.58896853 -15.49158444 87.525347 -15.50258636 76.46160126 C-15.51226007 66.32383058 -15.51354847 56.18624557 -15.48270559 46.04850668 C-15.4693288 41.27449637 -15.47529619 36.50101982 -15.49607086 31.72704136 C-15.50505688 28.75601077 -15.49758284 25.78518595 -15.48565865 22.81417274 C-15.48352794 21.43752598 -15.48824869 20.06084879 -15.5003643 18.68425369 C-15.51598434 16.80328293 -15.50467875 14.92214628 -15.49206543 13.04115295 C-15.49432758 11.46300104 -15.49432758 11.46300104 -15.49663544 9.85296726 C-14.86950965 6.25038639 -13.50942581 4.61493654 -11 2 C-7.28671335 -0.47552443 -4.30393027 -0.54010105 0 0 Z " fill="#FDEAC4" transform="translate(255,15)"/>
<path d="M0 0 C0.94703796 0.00045319 1.89407593 0.00090637 2.86981201 0.00137329 C3.86160965 -0.00198532 4.85340729 -0.00534393 5.8752594 -0.00880432 C9.17171462 -0.0183459 12.46811922 -0.02025902 15.7645874 -0.02133179 C18.04523236 -0.02454208 20.3258771 -0.02790598 22.60652161 -0.03141785 C27.39415973 -0.03741711 32.18177977 -0.03925692 36.96942139 -0.03866577 C43.11794428 -0.03856409 49.26635184 -0.05221889 55.41484737 -0.06943798 C60.12702471 -0.08053158 64.83917393 -0.0825858 69.55136299 -0.08205605 C71.8188676 -0.08324006 74.08637284 -0.08768522 76.35386467 -0.09538841 C79.51941995 -0.10513539 82.68472181 -0.1023313 85.85028076 -0.09628296 C87.26780136 -0.10471222 87.26780136 -0.10471222 88.71395874 -0.11331177 C89.57350662 -0.10911728 90.4330545 -0.10492279 91.31864929 -0.1006012 C92.06768996 -0.10114596 92.81673063 -0.10169073 93.58846951 -0.10225201 C95.42474365 0.14663696 95.42474365 0.14663696 97.42474365 2.14663696 C97.65179443 4.39321899 97.65179443 4.39321899 97.62005615 7.15444946 C97.61361084 8.14058228 97.60716553 9.12671509 97.6005249 10.14273071 C97.57538818 11.69153931 97.57538818 11.69153931 97.54974365 13.27163696 C97.54072021 14.3119104 97.53169678 15.35218384 97.5223999 16.42398071 C97.49878112 18.99842789 97.46584514 21.57241909 97.42474365 24.14663696 C96.59329834 24.18401978 95.76185303 24.22140259 94.9052124 24.25991821 C93.27519287 24.35853149 93.27519287 24.35853149 91.61224365 24.45913696 C90.53329834 24.51714478 89.45435303 24.57515259 88.3427124 24.63491821 C85.45194942 24.9264176 85.45194942 24.9264176 83.5614624 26.47085571 C81.63599607 29.30942978 82.07063881 31.84165841 82.42474365 35.14663696 C83.49747644 36.95488883 83.49747644 36.95488883 85.42474365 38.14663696 C88.30985515 38.63703682 88.30985515 38.63703682 91.58880615 38.62319946 C92.79279053 38.65413696 93.9967749 38.68507446 95.23724365 38.71694946 C96.49536865 38.73499634 97.75349365 38.75304321 99.04974365 38.77163696 C101.54201426 38.82239604 104.03421291 38.87687323 106.52630615 38.93569946 C107.63312744 38.95326294 108.73994873 38.97082642 109.88031006 38.98892212 C112.42474365 39.14663696 112.42474365 39.14663696 113.42474365 40.14663696 C113.51967261 42.48921759 113.55032848 44.80205815 113.53826904 47.14492798 C113.53838958 47.88846244 113.53851011 48.6319969 113.5386343 49.39806271 C113.53788524 51.81558617 113.53025737 54.23303346 113.5223999 56.65054321 C113.52093046 58.1387834 113.51990976 59.62702409 113.51934814 61.11526489 C113.51409552 66.64656344 113.50013443 72.17785094 113.48724365 77.70913696 C113.46661865 90.06351196 113.44599365 102.41788696 113.42474365 115.14663696 C68.21474365 115.14663696 23.00474365 115.14663696 -23.57525635 115.14663696 C-23.59588135 102.79226196 -23.61650635 90.43788696 -23.63775635 77.70913696 C-23.64686035 73.80271362 -23.65596436 69.89629028 -23.66534424 65.87149048 C-23.66986084 61.11526489 -23.66986084 61.11526489 -23.67070007 58.89137268 C-23.6722395 57.33224706 -23.67576442 55.77312266 -23.68083191 54.21400452 C-23.68811034 51.8576245 -23.68916373 49.50131748 -23.68878174 47.14492798 C-23.69237985 46.4458989 -23.69597795 45.74686983 -23.6996851 45.02665806 C-23.68928268 40.2606633 -23.68928268 40.2606633 -22.57525635 39.14663696 C-20.29092584 39.03826095 -18.00324114 39.00031963 -15.71636963 38.98892212 C-14.99927826 38.9838414 -14.28218689 38.97876068 -13.54336548 38.973526 C-11.98116414 38.96280043 -10.41894722 38.95418888 -8.85672379 38.94740677 C-6.38577392 38.93565287 -3.91500164 38.91620941 -1.44412231 38.89428711 C5.58290722 38.83255265 12.60991992 38.77860087 19.637146 38.74526978 C23.93079269 38.72435231 28.22411836 38.68907106 32.51758194 38.64451218 C34.15622305 38.63032614 35.79492099 38.62162388 37.43362045 38.61845779 C39.72511235 38.61356217 42.01574904 38.5904402 44.30706787 38.56314087 C45.61199188 38.55505402 46.91691589 38.54696716 48.26138306 38.53863525 C51.36989558 38.39784888 51.36989558 38.39784888 53.34616089 36.83935547 C55.17600211 33.9676184 54.77728325 31.43700657 54.42474365 28.14663696 C53.32684286 26.34386331 53.32684286 26.34386331 51.42474365 25.14663696 C48.74264287 24.67286608 48.74264287 24.67286608 45.66815186 24.71426392 C44.48715408 24.69446976 43.30615631 24.6746756 42.08937073 24.65428162 C40.81430161 24.64789169 39.53923248 24.64150177 38.2255249 24.63491821 C36.26754219 24.60799141 36.26754219 24.60799141 34.27000427 24.58052063 C30.80291769 24.53300644 27.33589624 24.50320674 23.86859131 24.4770813 C20.32923518 24.4472826 16.79010352 24.40075001 13.25091553 24.35562134 C6.30898608 24.26957252 -0.63301809 24.20223443 -7.57525635 24.14663696 C-7.60412871 20.3341527 -7.62201126 16.52169626 -7.63775635 12.70913696 C-7.64613525 11.62052368 -7.65451416 10.5319104 -7.66314697 9.41030884 C-7.66636963 8.37583618 -7.66959229 7.34136353 -7.6729126 6.27554321 C-7.67814941 5.31720581 -7.68338623 4.35886841 -7.68878174 3.37149048 C-7.4468851 -1.36916337 -3.94220763 0.01962519 0 0 Z " fill="#FBD702" transform="translate(197.57525634765625,389.8533630371094)"/>
<path d="M0 0 C0.33 0.33 0.66 0.66 1 1 C0.60776488 6.63823743 -0.5255016 10.84073886 -2.96484375 15.99609375 C-3.26925888 16.64930603 -3.57367401 17.30251831 -3.88731384 17.9755249 C-4.54769282 19.39036985 -5.21292279 20.80295879 -5.88250732 22.21347046 C-7.72847833 26.10496104 -9.53562585 30.01449548 -11.34765625 33.921875 C-11.7295813 34.74314377 -12.11150635 35.56441254 -12.50500488 36.41056824 C-16.77016469 45.60750026 -20.82408966 54.89474337 -24.875 64.1875 C-31.6948573 79.80574096 -38.6280198 95.36928203 -45.64501953 110.89990234 C-46.38060514 112.52828811 -47.11612059 114.15670557 -47.8515625 115.78515625 C-48.38452438 116.96522247 -48.38452438 116.96522247 -48.92825317 118.16912842 C-51.17133439 123.14276177 -53.38949592 128.12670004 -55.5859375 133.12109375 C-55.86065887 133.74465759 -56.13538025 134.36822144 -56.41842651 135.01068115 C-57.65919605 137.82793634 -58.89539712 140.6470013 -60.12255859 143.47021484 C-67.19056573 159.54787258 -74.84914462 173.18485186 -91.78515625 180.14453125 C-93.50286008 180.8044261 -95.23007755 181.44048573 -96.96875 182.04296875 C-99.33602123 182.94474094 -99.33602123 182.94474094 -101 186 C-101.24012791 188.60702418 -101.3727997 191.11964544 -101.4140625 193.73046875 C-101.43170654 194.39582642 -101.44935059 195.06118408 -101.4675293 195.7467041 C-101.53048619 198.2267258 -101.57674903 200.70714861 -101.625 203.1875 C-101.810625 211.5096875 -101.810625 211.5096875 -102 220 C-113.88 220 -125.76 220 -138 220 C-138 209.44 -138 198.88 -138 188 C-134.04 186.35 -130.08 184.7 -126 183 C-122.75919422 180.72722711 -119.92233101 178.59951538 -117 176 C-116.09507812 175.25169922 -116.09507812 175.25169922 -115.171875 174.48828125 C-104.600186 165.03566743 -99.24401174 149.39659655 -93.625 136.6875 C-92.85409262 134.95786821 -92.08267909 133.22846193 -91.31079102 131.49926758 C-88.8619651 126.00475274 -86.42991706 120.50289757 -84 115 C-83.14404708 113.06380026 -82.28809002 111.12760236 -81.43212891 109.19140625 C-78.92883272 103.52567262 -76.43115707 97.85748232 -73.9375 92.1875 C-73.54242249 91.28929535 -73.14734497 90.3910907 -72.74029541 89.46566772 C-71.62588796 86.92970073 -70.51363639 84.392802 -69.40234375 81.85546875 C-69.07091873 81.10108521 -68.73949371 80.34670166 -68.39802551 79.56945801 C-67.15901496 76.73453825 -65.9789663 73.9368989 -65 71 C-63.1796875 69.74609375 -63.1796875 69.74609375 -60.875 68.4375 C-49.68017328 61.14137487 -45.4784573 47.66518313 -40.4375 35.875 C-38.99004608 32.49196379 -37.5284324 29.11554842 -36.05859375 25.7421875 C-35.7396666 24.98364471 -35.42073944 24.22510193 -35.09214783 23.443573 C-30.73692289 13.4525771 -24.28177316 5.52763353 -14.125 1.125 C-9.53146168 -0.4274881 -4.7976627 -0.48631279 0 0 Z " fill="#FDE1AA" transform="translate(386,155)"/>
<path d="M0 0 C0.94703796 0.00045319 1.89407593 0.00090637 2.86981201 0.00137329 C3.86160965 -0.00198532 4.85340729 -0.00534393 5.8752594 -0.00880432 C9.17171462 -0.0183459 12.46811922 -0.02025902 15.7645874 -0.02133179 C18.04523236 -0.02454208 20.3258771 -0.02790598 22.60652161 -0.03141785 C27.39415973 -0.03741711 32.18177977 -0.03925692 36.96942139 -0.03866577 C43.11794428 -0.03856409 49.26635184 -0.05221889 55.41484737 -0.06943798 C60.12702471 -0.08053158 64.83917393 -0.0825858 69.55136299 -0.08205605 C71.8188676 -0.08324006 74.08637284 -0.08768522 76.35386467 -0.09538841 C79.51941995 -0.10513539 82.68472181 -0.1023313 85.85028076 -0.09628296 C87.26780136 -0.10471222 87.26780136 -0.10471222 88.71395874 -0.11331177 C89.57350662 -0.10911728 90.4330545 -0.10492279 91.31864929 -0.1006012 C92.06768996 -0.10114596 92.81673063 -0.10169073 93.58846951 -0.10225201 C95.42474365 0.14663696 95.42474365 0.14663696 97.42474365 2.14663696 C97.65179443 4.39321899 97.65179443 4.39321899 97.62005615 7.15444946 C97.61361084 8.14058228 97.60716553 9.12671509 97.6005249 10.14273071 C97.57538818 11.69153931 97.57538818 11.69153931 97.54974365 13.27163696 C97.54072021 14.3119104 97.53169678 15.35218384 97.5223999 16.42398071 C97.49878112 18.99842789 97.46584514 21.57241909 97.42474365 24.14663696 C96.59329834 24.18401978 95.76185303 24.22140259 94.9052124 24.25991821 C93.27519287 24.35853149 93.27519287 24.35853149 91.61224365 24.45913696 C90.53329834 24.51714478 89.45435303 24.57515259 88.3427124 24.63491821 C85.46051136 24.92549191 85.46051136 24.92549191 83.6005249 26.43960571 C82.11872662 28.37741665 82.11872662 28.37741665 81.42474365 32.14663696 C73.17474365 32.14663696 64.92474365 32.14663696 56.42474365 32.14663696 C55.92974365 33.13663696 55.92974365 33.13663696 55.42474365 34.14663696 C55.24298584 33.29778931 55.24298584 33.29778931 55.05755615 32.43179321 C54.88997803 31.69831665 54.7223999 30.96484009 54.54974365 30.20913696 C54.38732178 29.47823853 54.2248999 28.74734009 54.05755615 27.99429321 C53.59512842 25.93963402 53.59512842 25.93963402 51.42474365 25.14663696 C49.54629457 25.02681439 47.66373535 24.96934535 45.78167725 24.9413147 C44.60060394 24.92136948 43.41953064 24.90142426 42.20266724 24.88087463 C40.28232162 24.85580589 40.28232162 24.85580589 38.32318115 24.83023071 C37.0164444 24.80944962 35.70970764 24.78866852 34.3633728 24.76725769 C30.88805465 24.71204402 27.41267713 24.66263171 23.93725586 24.6144104 C20.39136465 24.56419019 16.84555975 24.50850685 13.29974365 24.45327759 C6.34148515 24.34570469 -0.61685131 24.24425779 -7.57525635 24.14663696 C-7.60412871 20.3341527 -7.62201126 16.52169626 -7.63775635 12.70913696 C-7.64613525 11.62052368 -7.65451416 10.5319104 -7.66314697 9.41030884 C-7.66636963 8.37583618 -7.66959229 7.34136353 -7.6729126 6.27554321 C-7.67814941 5.31720581 -7.68338623 4.35886841 -7.68878174 3.37149048 C-7.4468851 -1.36916337 -3.94220763 0.01962519 0 0 Z " fill="#FE6D4F" transform="translate(197.57525634765625,389.8533630371094)"/>
<path d="M0 0 C13.26459209 -0.04626195 26.52916512 -0.08183788 39.79382133 -0.10362434 C45.95258297 -0.1140787 52.11128957 -0.12826797 58.27001953 -0.15087891 C64.20924549 -0.17254846 70.14841839 -0.18455617 76.08768082 -0.18975449 C78.35798097 -0.19346086 80.62827809 -0.20069805 82.89855576 -0.21146011 C86.06899124 -0.22589677 89.23920511 -0.22798123 92.40966797 -0.22705078 C93.35625275 -0.23424133 94.30283752 -0.24143188 95.27810669 -0.24884033 C96.13909973 -0.246091 97.00009277 -0.24334167 97.88717651 -0.24050903 C98.637516 -0.24235262 99.38785549 -0.24419621 100.16093254 -0.24609566 C102 0 102 0 104 2 C104.22705078 4.24658203 104.22705078 4.24658203 104.1953125 7.0078125 C104.18886719 7.99394531 104.18242187 8.98007812 104.17578125 9.99609375 C104.15064453 11.54490234 104.15064453 11.54490234 104.125 13.125 C104.11597656 14.16527344 104.10695313 15.20554687 104.09765625 16.27734375 C104.07403747 18.85179092 104.04110149 21.42578212 104 24 C103.16855469 24.03738281 102.33710938 24.07476562 101.48046875 24.11328125 C99.85044922 24.21189453 99.85044922 24.21189453 98.1875 24.3125 C97.10855469 24.37050781 96.02960938 24.42851562 94.91796875 24.48828125 C91.73791697 25.04596101 90.859528 25.43654974 89 28 C88.34 29.32 87.68 30.64 87 32 C81.72 31.67 76.44 31.34 71 31 C71 21.1 71 11.2 71 1 C47.57 1 24.14 1 0 1 C0 0.67 0 0.34 0 0 Z " fill="#E16046" transform="translate(191,390)"/>
<path d="M0 0 C2.57714844 1.05395508 2.57714844 1.05395508 5.109375 2.51953125 C6.02847656 3.04740234 6.94757813 3.57527344 7.89453125 4.11914062 C8.83683594 4.67794922 9.77914063 5.23675781 10.75 5.8125 C11.70777344 6.35970703 12.66554688 6.90691406 13.65234375 7.47070312 C20.72294427 11.5844164 20.72294427 11.5844164 23 15 C23.41857482 18.83693587 23.54644269 21.11203064 21.5 24.4375 C18.00896678 26.61939576 14.9598124 26.65354908 11 26 C7.51935469 24.57914653 4.38710045 22.71322089 1.1875 20.75 C0.34251953 20.25886719 -0.50246094 19.76773437 -1.37304688 19.26171875 C-5.36867565 16.88147921 -8.46921001 15.00064169 -11 11 C-11.5 8.0625 -11.5 8.0625 -11 5 C-7.62452852 0.43318565 -5.56444365 -0.51447306 0 0 Z " fill="#000000" transform="translate(425,265)"/>
<path d="M0 0 C2.57714844 1.05395508 2.57714844 1.05395508 5.109375 2.51953125 C6.02847656 3.04740234 6.94757813 3.57527344 7.89453125 4.11914062 C8.83683594 4.67794922 9.77914062 5.23675781 10.75 5.8125 C11.70777344 6.35970703 12.66554688 6.90691406 13.65234375 7.47070312 C20.72294427 11.5844164 20.72294427 11.5844164 23 15 C23.41857482 18.83693587 23.54644269 21.11203064 21.5 24.4375 C18.00842934 26.61973166 14.96001308 26.6611187 11 26 C7.52017449 24.5559544 4.38625037 22.6676788 1.1875 20.6875 C0.34251953 20.18798828 -0.50246094 19.68847656 -1.37304688 19.17382812 C-8.71855104 14.76885939 -8.71855104 14.76885939 -11 12 C-11.65341537 7.58944623 -11.51318284 5.7093998 -8.875 2.0625 C-5.44256163 -0.39990144 -4.13419328 -0.37709244 0 0 Z " fill="#000000" transform="translate(75,116)"/>
<path d="M0 0 C2.98496444 2.09754258 3.85227852 3.49352636 4.875 7 C5.01103681 10.26488353 4.72178761 11.29969934 3 14 C0.00533444 16.4063063 -3.33093926 18.2801611 -6.625 20.25 C-7.50285156 20.80429687 -8.38070312 21.35859375 -9.28515625 21.9296875 C-14.84453982 25.28349096 -18.50117262 26.77435916 -25 26 C-27.5 25.0625 -27.5 25.0625 -29 23 C-29.62072396 19.87864522 -29.85872687 17.07754909 -29 14 C-25.02103153 10.0603494 -19.91635779 7.47608503 -15.0625 4.75 C-13.88397461 4.06164062 -13.88397461 4.06164062 -12.68164062 3.359375 C-8.34461276 0.92047732 -5.12264792 -0.79168195 0 0 Z " fill="#000000" transform="translate(95,265)"/>
<path d="M0 0 C1.23685547 -0.02900391 2.47371094 -0.05800781 3.74804688 -0.08789062 C4.94107422 -0.09626953 6.13410156 -0.10464844 7.36328125 -0.11328125 C9.0016394 -0.13515503 9.0016394 -0.13515503 10.6730957 -0.1574707 C14.3800923 0.4204809 16.03155731 1.71577296 18.6875 4.3125 C19.3515625 6.3125 19.3515625 6.3125 19.3125 8.3125 C19.32539062 8.9725 19.33828125 9.6325 19.3515625 10.3125 C18.31519827 13.43378522 16.37833395 14.51046434 13.6875 16.3125 C10.70483398 16.83007812 10.70483398 16.83007812 7.43359375 16.84375 C6.24958984 16.84890625 5.06558594 16.8540625 3.84570312 16.859375 C2.00395508 16.83617187 2.00395508 16.83617187 0.125 16.8125 C-1.10669922 16.82796875 -2.33839844 16.8434375 -3.60742188 16.859375 C-4.79013672 16.85421875 -5.97285156 16.8490625 -7.19140625 16.84375 C-8.2697876 16.83923828 -9.34816895 16.83472656 -10.45922852 16.83007812 C-13.96816573 16.19356346 -15.12581942 15.07220874 -17.3125 12.3125 C-18.68999054 8.82285729 -18.42364829 7.58772434 -17 4.0625 C-13.41040593 -1.78720885 -6.20511102 0.04805197 0 0 Z " fill="#000000" transform="translate(61.3125,195.6875)"/>
<path d="M0 0 C1.28197266 -0.00064453 2.56394531 -0.00128906 3.88476562 -0.00195312 C4.88141235 0.01363647 4.88141235 0.01363647 5.89819336 0.02954102 C7.931003 0.05855677 9.96121192 0.05013309 11.99414062 0.03710938 C21.82886538 0.10145332 21.82886538 0.10145332 24.22241211 1.84350586 C25.99087726 4.38776529 26.24810198 6.42129957 26.37109375 9.49609375 C25.23329503 11.82340931 24.20268661 13.66450089 22.37109375 15.49609375 C18.29300531 15.76223959 14.21127885 15.76735341 10.12524414 15.79125977 C8.07695063 15.80843978 6.03028553 15.85230364 3.98242188 15.89648438 C2.69142578 15.90486328 1.40042969 15.91324219 0.0703125 15.921875 C-1.71113159 15.94374878 -1.71113159 15.94374878 -3.52856445 15.96606445 C-6.62890625 15.49609375 -6.62890625 15.49609375 -9.01635742 13.68823242 C-11.36641609 10.49350467 -11.18080816 8.35940715 -10.62890625 4.49609375 C-7.52198872 0.29239633 -5.09095458 -0.00802935 0 0 Z " fill="#000000" transform="translate(442.62890625,195.50390625)"/>
</svg>
