<?xml version="1.0" encoding="UTF-8"?>
<svg version="1.1" xmlns="http://www.w3.org/2000/svg" width="512" height="512">
<path d="M0 0 C2.1665087 1.04469995 4.3059993 2.14893125 6.40234375 3.328125 C10.04875244 4.9234288 12.45487603 5.06737827 16.40234375 4.640625 C19.23040488 3.37082717 19.23040488 3.37082717 21.90234375 1.640625 C29.04115141 -2.10724902 35.47284777 -2.66975781 43.40234375 -1.359375 C46.71421952 -0.02542504 49.71614828 1.53518901 52.8203125 3.29296875 C56.25554618 5.08594245 58.59877066 5.31184378 62.40234375 4.640625 C63.49546875 4.145625 64.58859375 3.650625 65.71484375 3.140625 C70.42463606 1.22477728 74.38371635 0.77106085 79.40234375 1.640625 C83.09150867 3.3771566 85.06844502 6.12864694 87.27734375 9.515625 C92.0168589 22.87244042 86.8223651 37.2129494 81.13525391 49.34326172 C76.47602344 58.84609862 71.42195746 67.93030699 65.40234375 76.640625 C67.22435259 80.32035888 69.22927833 83.86593596 71.28125 87.421875 C72.85425163 90.53499322 73.55558254 92.597935 73.04296875 96.0859375 C72.57665028 99.28488219 72.57218313 101.50026993 73.40234375 104.640625 C76.71303191 108.11846517 80.4952477 110.6117042 84.46777344 113.27685547 C87.87732708 115.68041007 91.00217585 118.41116223 94.15234375 121.140625 C94.76029785 121.6574585 95.36825195 122.17429199 95.99462891 122.70678711 C100.2748341 126.38560569 100.2748341 126.38560569 101.40234375 128.640625 C101.09296875 130.5896875 101.09296875 130.5896875 100.77734375 132.578125 C100.71557923 136.79183764 102.10422527 139.06435862 104.87817383 142.2043457 C109.18932638 146.76594802 109.18932638 146.76594802 114.85546875 149.08984375 C116.3385523 148.95761078 117.8195271 148.79893028 119.296875 148.61328125 C122.94712759 148.66068713 124.76117924 150.81705087 127.2578125 153.2890625 C127.96550781 154.06507813 128.67320312 154.84109375 129.40234375 155.640625 C130.22347656 156.54039062 131.04460937 157.44015625 131.890625 158.3671875 C143.60452141 171.59373438 153.78819671 186.23120921 162.40234375 201.640625 C162.80549805 202.3526709 163.20865234 203.0647168 163.62402344 203.79833984 C186.86773886 245.14928478 196.72609266 294.07557319 183.96484375 340.453125 C182.24393036 346.42413343 180.18716156 352.07098939 177.40234375 357.640625 C178.90861328 357.00833984 178.90861328 357.00833984 180.4453125 356.36328125 C191.64813426 351.81136019 202.35958517 348.3932487 214.265625 352.70703125 C221.55333163 355.89123945 227.84125258 361.72894331 231.54296875 368.828125 C235.35827186 378.70302718 235.179217 387.7866775 231.40234375 397.640625 C226.56675914 406.16883786 218.81888507 411.65126676 210.52734375 416.515625 C202.91948956 421.07166394 195.4240655 425.78274887 187.96484375 430.578125 C185.81777452 431.95713431 183.67063975 433.33604157 181.5234375 434.71484375 C179.96858643 435.71330322 179.96858643 435.71330322 178.38232422 436.73193359 C174.10853376 439.46931634 169.82045276 442.18366886 165.52734375 444.890625 C164.76470215 445.37152588 164.00206055 445.85242676 163.21630859 446.34790039 C161.70017842 447.30345414 160.18390395 448.25877897 158.66748047 449.21386719 C154.8068728 451.64557566 150.94805848 454.08012195 147.08984375 456.515625 C145.92509521 457.25087402 145.92509521 457.25087402 144.73681641 458.00097656 C138.6166509 461.8672674 132.50822458 465.75182377 126.40234375 469.640625 C117.22869601 475.48152132 108.05161695 481.3161708 98.84130859 487.09912109 C96.24420466 488.74057397 93.66122157 490.4030097 91.078125 492.06640625 C72.69939046 503.81034985 55.66903039 511.12629105 33.43652344 511.04467773 C32.0927423 511.05039857 30.74896601 511.05736935 29.40519714 511.06547546 C25.79536489 511.08323758 22.18577795 511.08227038 18.57591534 511.07653308 C15.54226234 511.07341504 12.50865473 511.07956272 9.47500825 511.08557183 C2.30605339 511.09956116 -4.86278217 511.09810393 -12.03173828 511.08666992 C-19.38050692 511.07520671 -26.72890982 511.08924677 -34.07763028 511.1160664 C-40.42887445 511.13836144 -46.78000499 511.14482962 -53.13128543 511.13898998 C-56.90606628 511.13565042 -60.68061318 511.13783136 -64.45536041 511.15524101 C-94.68520822 511.28088061 -94.68520822 511.28088061 -108.59765625 506.640625 C-110.30018555 506.08487541 -110.30018555 506.08487541 -112.03710938 505.51789856 C-115.33490205 504.38083655 -118.58649974 503.16053998 -121.83984375 501.90234375 C-123.01370636 501.45848831 -124.18756897 501.01463287 -125.39700317 500.55732727 C-129.09275032 499.15751702 -132.78278065 497.74332995 -136.47265625 496.328125 C-138.93191184 495.39288084 -141.39154543 494.45863001 -143.8515625 493.52539062 C-147.44026009 492.16351712 -151.02857165 490.80070361 -154.61517334 489.43331909 C-164.24892275 485.76096193 -173.91214879 482.17396143 -183.59765625 478.640625 C-183.72739334 479.25890671 -183.85713043 479.87718842 -183.99079895 480.51420593 C-184.25215889 481.73053459 -184.25215889 481.73053459 -184.51879883 482.97143555 C-184.68978592 483.77534225 -184.86077301 484.57924896 -185.03694153 485.40751648 C-186.29731649 490.42709944 -189.340434 494.87092376 -193.40625 498.05859375 C-197.76072596 500.65255039 -201.74464766 501.74796123 -206.74853516 501.81762695 C-207.5568277 501.83046219 -208.36512024 501.84329742 -209.19790649 501.85652161 C-210.49793106 501.86760201 -210.49793106 501.86760201 -211.82421875 501.87890625 C-212.72707611 501.886978 -213.62993347 501.89504974 -214.56015015 501.90336609 C-216.47155857 501.91718402 -218.38299144 501.9279164 -220.29443359 501.93579102 C-222.23591414 501.94728386 -224.17736376 501.9676927 -226.11865234 501.99731445 C-249.2744886 502.35043208 -249.2744886 502.35043208 -256.47705078 495.9777832 C-262.24288369 490.10443947 -263.97170846 482.89242347 -263.97860718 474.86769104 C-263.98328715 474.12808276 -263.98796712 473.38847447 -263.99278891 472.62645382 C-264.00466741 470.17078504 -263.99531009 467.71568177 -263.98583984 465.26000977 C-263.98990877 463.49020057 -263.99525245 461.72039391 -264.00177002 459.95059204 C-264.01541225 455.15922826 -264.01015748 450.36805892 -264.00063276 445.57669187 C-263.99301894 440.55339628 -264.00008667 435.53011695 -264.00479126 430.50682068 C-264.0102443 422.07116722 -264.00306957 413.63559264 -263.98876953 405.19995117 C-263.9724492 395.46033259 -263.97772889 385.72090249 -263.99424875 375.98128849 C-264.0078828 367.60651719 -264.00977373 359.23180248 -264.00193274 350.85702366 C-263.9972661 345.86069619 -263.99660347 340.86445717 -264.00654221 335.86813545 C-264.01523735 331.16897047 -264.00914353 326.47004734 -263.99185944 321.77090836 C-263.98790795 320.05086226 -263.9890056 318.33079564 -263.99564743 316.61075783 C-264.06126201 297.88551372 -264.06126201 297.88551372 -258.41015625 289.328125 C-251.88577313 283.09371446 -245.62861327 282.03518015 -236.81640625 282.109375 C-235.80348511 282.1055481 -234.79056396 282.10172119 -233.74694824 282.09777832 C-231.6156311 282.09506891 -229.48428016 282.10236165 -227.35302734 282.11914062 C-224.10698698 282.14056342 -220.86315974 282.11930497 -217.6171875 282.09375 C-215.53775557 282.09639345 -213.45832502 282.10151877 -211.37890625 282.109375 C-210.41722534 282.10127808 -209.45554443 282.09318115 -208.46472168 282.08483887 C-201.37756726 282.18254751 -196.00040083 283.70427977 -190.57421875 288.38671875 C-185.13733122 295.19068494 -184.29521946 299.98757249 -184.59765625 308.640625 C-183.83582031 308.62902344 -183.07398438 308.61742187 -182.2890625 308.60546875 C-175.95925303 308.55015206 -169.87210076 308.8040324 -163.59765625 309.640625 C-163.69304687 308.75246094 -163.7884375 307.86429687 -163.88671875 306.94921875 C-168.44825993 254.38541282 -144.01858092 203.52309149 -111.59765625 163.640625 C-109.40236451 161.10648692 -107.17449359 158.61401995 -104.8984375 156.15234375 C-103.01707866 154.0985004 -101.19282594 152.01558457 -99.375 149.90625 C-95.37626399 145.3256463 -91.14841646 140.99930701 -86.84765625 136.703125 C-86.05343262 135.90970703 -85.25920898 135.11628906 -84.44091797 134.29882812 C-78.75140163 128.66839656 -72.91326337 123.55905745 -66.59765625 118.640625 C-64.35579133 116.80157934 -62.13252331 114.94065537 -59.91015625 113.078125 C-58.88551185 112.22254225 -57.86078133 111.36706262 -56.8359375 110.51171875 C-56.09730469 109.89425781 -55.35867187 109.27679688 -54.59765625 108.640625 C-73.82071591 109.87669757 -93.48533087 113.32861457 -107.03515625 128.265625 C-109.08420155 130.68722399 -110.85967991 133.04184873 -112.59765625 135.703125 C-114.8681352 137.90265149 -115.54486152 138.02354884 -118.59765625 138.203125 C-121.46877827 137.9995753 -122.58777632 137.64679995 -125.09765625 136.078125 C-127.30221119 132.49572323 -127.33861642 130.81694596 -126.59765625 126.640625 C-118.33434121 111.52361925 -103.73747984 101.88888932 -87.59765625 96.640625 C-76.76825164 93.65150157 -65.74838656 91.89055937 -54.59765625 90.640625 C-62.0348226 83.39686013 -69.54412313 77.78988585 -80.2980957 77.59057617 C-81.2593335 77.62127197 -82.22057129 77.65196777 -83.2109375 77.68359375 C-101.74574935 78.10433453 -120.19850624 77.22482753 -135.45703125 65.171875 C-137.2050696 62.82519339 -137.06799704 60.41642687 -136.9375 57.58203125 C-136.59765625 55.640625 -136.59765625 55.640625 -135.09765625 53.140625 C-131.42371421 50.93625977 -128.67680434 50.67897684 -124.59765625 51.640625 C-121.03799356 53.25484188 -117.67139727 55.00935274 -114.2578125 56.9140625 C-106.41118516 60.90465758 -98.53071162 60.81579644 -89.91015625 60.578125 C-74.35821768 60.38505828 -60.58611585 62.10088523 -48.66015625 72.953125 C-47.94988281 73.65050781 -47.23960937 74.34789063 -46.5078125 75.06640625 C-44.62434668 76.9586169 -44.62434668 76.9586169 -41.59765625 76.640625 C-41.92636719 76.04378906 -42.25507813 75.44695312 -42.59375 74.83203125 C-43.63022526 72.94165767 -44.66077168 71.0480289 -45.6875 69.15234375 C-47.0398549 66.66611256 -48.40707119 64.19217535 -49.7890625 61.72265625 C-57.79218694 47.23797223 -67.31622233 29.00491453 -62.9140625 12 C-60.90164562 6.95643239 -58.73476944 3.86993827 -53.59765625 1.640625 C-47.41933523 0.67103448 -43.26753974 2.12067678 -37.59765625 4.640625 C-32.36664857 5.563744 -29.54942465 4.1615059 -25.09765625 1.640625 C-16.95095577 -2.63105316 -8.67259246 -3.27694047 0 0 Z " fill="#020101" transform="translate(270.59765625,1.359375)"/>
<path d="M0 0 C4.12087869 0.40926535 6.36263782 1.7426242 9.5 4.375 C10.36109375 5.08398438 11.2221875 5.79296875 12.109375 6.5234375 C14.20613004 8.31984654 16.27341591 10.13347189 18.328125 11.9765625 C18.89595703 12.47752441 19.46378906 12.97848633 20.04882812 13.49462891 C21.16355753 14.48105564 22.26700608 15.48041361 23.35742188 16.49365234 C25.96728906 18.79805755 27.65884906 19.95247649 31.140625 20.4375 C33.85865798 20.0216261 35.67270459 19.43218179 38 18 C50.76628159 29.05140794 50.76628159 29.05140794 51.32421875 33.703125 C50.94041422 35.32189238 50.53923652 36.93663577 50.12109375 38.546875 C49.89347485 43.15799341 53.40285355 45.92229952 56.33984375 49.16796875 C57.21769531 50.10253906 58.09554688 51.03710938 59 52 C88.97344222 86.38553291 111.11965896 130.02002266 111.24023438 176.3059082 C111.24987279 178.53310483 111.28093614 180.75934967 111.3125 182.98632812 C111.38343204 192.71291769 110.28098408 201.53521865 108 211 C107.77707275 211.97187256 107.55414551 212.94374512 107.32446289 213.94506836 C105.98703121 219.60229639 103.95579792 224.98307824 101.8125 230.375 C101.55758789 231.03419434 101.30267578 231.69338867 101.04003906 232.37255859 C100.1120537 234.62942336 99.06654061 236.80510618 98 239 C97.55825439 240.02681885 97.11650879 241.0536377 96.66137695 242.11157227 C90.88685248 253.60455788 82.00499388 256.6313892 70.5625 261.1875 C68.6572892 261.98088981 66.75382661 262.77848952 64.85205078 263.58007812 C60.90615746 265.23911596 56.95288595 266.87844487 52.99365234 268.50537109 C47.07591081 270.95080331 41.21416966 273.51252919 35.36328125 276.11328125 C34.43280472 276.52652145 33.50232819 276.93976166 32.5436554 277.36552429 C30.71109465 278.18019395 28.87873892 278.99532497 27.04660034 279.8109436 C22.81343401 281.6950104 18.57741786 283.57222408 14.3359375 285.4375 C13.62202347 285.75539993 12.90810944 286.07329987 12.17256165 286.40083313 C7.20671844 288.57900283 2.16829234 290.36223048 -3 292 C-3.08636719 290.83984375 -3.17273438 289.6796875 -3.26171875 288.484375 C-4.52472487 273.67622403 -7.8759927 261.55375684 -19.0625 251.06640625 C-28.28630347 243.40735515 -38.05188859 240.31299473 -49.8125 239 C-51.07151123 238.84466797 -52.33052246 238.68933594 -53.62768555 238.52929688 C-63.83012857 237.28309831 -74.05665395 236.23503215 -84.27661133 235.14453125 C-138.07297696 229.40224398 -138.07297696 229.40224398 -150 223 C-151.33002447 222.31893457 -152.66081808 221.63937002 -153.9921875 220.9609375 C-159.56079721 218.08872045 -165.1061173 215.17915617 -170.4609375 211.921875 C-181.14302318 205.47710122 -192.55784524 201.14156362 -204.37597656 197.20947266 C-206.28123298 196.55615709 -208.14619624 195.78754989 -210 195 C-219.85803126 165.42590623 -203.81587071 124.68209275 -190.69921875 98.30859375 C-175.10867079 67.77584426 -151.06279998 39.20481972 -125 17 C-123.85375997 16.01349318 -122.70796545 15.0264686 -121.5625 14.0390625 C-120.31268017 12.9633323 -119.06267893 11.88781285 -117.8125 10.8125 C-116.92075073 10.04522583 -116.92075073 10.04522583 -116.01098633 9.26245117 C-112.72268915 6.44344973 -109.40090061 3.68357318 -106 1 C-104.96166016 1.433125 -104.96166016 1.433125 -103.90234375 1.875 C-100.8190195 3.07015126 -97.73353758 4.06151951 -94.5625 5 C-93.47066406 5.33 -92.37882812 5.66 -91.25390625 6 C-78.90302344 9.13897562 -66.52938221 9.36795769 -53.875 9.3125 C-53.01449036 9.31067719 -52.15398071 9.30885437 -51.26739502 9.30697632 C-24.08274932 10.20866339 -24.08274932 10.20866339 0 0 Z " fill="#E9BB6A" transform="translate(333,120)"/>
<path d="M0 0 C29.68549015 -1.19672749 53.39268739 8.89314026 78.87994385 23.31365967 C95.45193148 32.68440992 110.74251796 37.59750274 129.70493698 39.60133171 C132.01335401 39.8453854 134.32100355 40.09583641 136.62857056 40.34779358 C141.54345066 40.88328924 146.45916296 41.41087208 151.375 41.9375 C188.28585079 45.89379854 188.28585079 45.89379854 199.2890625 47.50390625 C200.33735733 47.64480934 200.33735733 47.64480934 201.40682983 47.78855896 C209.28566852 49.03484259 216.72512476 52.98565627 222 59 C227.3608396 67.21029488 229.17591083 73.55044459 229.0625 83.3125 C229.05798828 84.05306641 229.05347656 84.79363281 229.04882812 85.55664062 C229.03712175 87.37112899 229.01918898 89.18557534 229 91 C227.4878315 91.00879936 227.4878315 91.00879936 225.94511414 91.01777649 C216.45397793 91.07493925 206.96307226 91.14766683 197.47217083 91.23571491 C192.59254793 91.28048122 187.71300973 91.3197234 182.83325195 91.34643555 C178.12578424 91.37240624 173.41864139 91.41276402 168.71137428 91.46318626 C166.91364387 91.47989729 165.11585721 91.49138512 163.31805992 91.49761391 C160.80373283 91.50720918 158.29024486 91.5352123 155.77612305 91.56762695 C155.02949905 91.56619186 154.28287506 91.56475677 153.5136261 91.5632782 C149.54048235 91.63487631 149.54048235 91.63487631 146.04133606 93.34342957 C144.36790587 96.00554325 144.56269534 97.93886739 145 101 C146.47101968 103.30452207 146.47101968 103.30452207 149 105 C151.80544354 105.45652949 154.23851558 105.66824744 157.05273438 105.70800781 C157.86355972 105.7342926 158.67438507 105.76057739 159.50978088 105.78765869 C162.20445616 105.86667146 164.89822275 105.91334023 167.59375 105.953125 C168.99369453 105.97757816 168.99369453 105.97757816 170.42192078 106.00252533 C175.3976178 106.08614949 180.37287292 106.14319066 185.34912109 106.18066406 C189.39497175 106.21557315 193.43508103 106.29765496 197.47900391 106.42675781 C224.99737693 107.28627435 245.69399476 104.19775259 270.03004456 91.07397461 C276.71867844 87.50861602 283.72903143 84.61573221 290.6875 81.625 C292.2508743 80.93804323 293.81353305 80.24944964 295.37475586 79.55761719 C296.61306055 79.01223822 297.85142183 78.46698772 299.08984375 77.921875 C300.13844826 77.46019928 300.13844826 77.46019928 301.20823669 76.98919678 C303.47207531 75.99261033 305.73602443 74.9962753 308 74 C309.21613983 73.46475708 309.21613983 73.46475708 310.45684814 72.91870117 C329.0806888 64.72272306 347.7098459 56.5390378 366.375 48.4375 C367.01014526 48.16137878 367.64529053 47.88525757 368.29968262 47.60076904 C370.06116697 46.83532697 371.82352796 46.0719032 373.5859375 45.30859375 C375.05619385 44.67135376 375.05619385 44.67135376 376.55615234 44.02124023 C382.56511519 41.51020211 388.03979587 40.97531396 394.25 43.125 C398.08084349 45.73693874 400.90161815 48.80323629 403 53 C403.49803053 57.99663418 403.61402292 62.50880147 401.6875 67.1875 C394.75831765 74.4389699 385.90569066 79.37144049 377.38134766 84.51708984 C371.28287553 88.19864446 365.25413856 91.97916616 359.25 95.8125 C358.32791748 96.40111816 357.40583496 96.98973633 356.45581055 97.59619141 C354.57509021 98.7975951 352.69463876 99.99941983 350.81445312 101.20166016 C346.21395188 104.14122402 341.60670718 107.07017527 337 110 C331.46407628 113.52223332 325.92862455 117.04520384 320.39453125 120.5703125 C310.16256705 127.08683879 299.9216325 133.58862772 289.66015625 140.05859375 C286.47688315 142.06600886 283.29766399 144.07965194 280.12109375 146.09765625 C276.15861244 148.61383782 272.18878832 151.11795822 268.21191406 153.61132812 C266.77961035 154.51054926 265.34914475 155.41270765 263.92089844 156.31835938 C247.42701275 166.75343173 232.41553958 171.30583797 212.8503418 171.29052734 C211.59496613 171.29724457 210.33959045 171.30396179 209.0461731 171.31088257 C205.63888534 171.32650331 202.23184152 171.33323027 198.82453513 171.33451414 C196.6862491 171.33594619 194.54798784 171.34023539 192.40970802 171.34550858 C184.9229434 171.36394862 177.43624947 171.37218659 169.94946289 171.37060547 C163.01364624 171.36940498 156.07814119 171.39050464 149.1424033 171.4220928 C143.15045444 171.44839249 137.15860654 171.45896711 131.16660053 171.45769465 C127.60423284 171.45718912 124.04214283 171.46264257 120.4798336 171.48405075 C92.34562648 171.6410889 92.34562648 171.6410889 80 167 C78.5801757 166.51882217 78.5801757 166.51882217 77.13166809 166.02792358 C74.45148356 165.10222149 71.806577 164.11160766 69.16015625 163.09375 C68.19186386 162.72834106 67.22357147 162.36293213 66.22593689 161.9864502 C63.16883054 160.83109626 60.11559134 159.66591648 57.0625 158.5 C55.08945136 157.75192161 53.11614472 157.00452336 51.14257812 156.2578125 C48.11166271 155.11056535 45.08109178 153.96245553 42.05166626 152.8112793 C32.85540085 149.31682485 23.64582677 145.85832868 14.43359375 142.40625 C13.7105562 142.13530014 12.98751865 141.86435028 12.24257088 141.58518982 C8.16194375 140.05617915 4.08107552 138.52781352 0 137 C-0.00546844 135.43478607 -0.00546844 135.43478607 -0.01104736 133.83795166 C-0.0479737 124.00862635 -0.10572038 114.17961502 -0.18390274 104.35052872 C-0.22342771 99.29714907 -0.25559152 94.24394499 -0.27099609 89.19042969 C-0.28612966 84.31431996 -0.32051629 79.43869274 -0.36830902 74.56279755 C-0.38315695 72.70170025 -0.39104296 70.84053408 -0.39188385 68.97937775 C-0.39424504 66.37407365 -0.42125496 63.77011223 -0.45410156 61.16503906 C-0.4490712 60.39395813 -0.44404083 59.6228772 -0.43885803 58.82843018 C-0.50688023 55.34592976 -0.72130575 53.36942762 -2.84661865 50.55218506 C-5.00783919 48.83171955 -5.00783919 48.83171955 -8 48 C-8 41.4 -8 34.8 -8 28 C-6.02 27.01 -4.04 26.02 -2 25 C-0.74161443 22.48322887 -0.79181027 20.58706712 -0.68359375 17.7734375 C-0.64169922 16.7421875 -0.59980469 15.7109375 -0.55664062 14.6484375 C-0.51732422 13.56820313 -0.47800781 12.48796875 -0.4375 11.375 C-0.37272461 9.74304688 -0.37272461 9.74304688 -0.30664062 8.078125 C-0.2003547 5.3855483 -0.09831943 2.69287747 0 0 Z " fill="#FEDCCD" transform="translate(86,326)"/>
<path d="M0 0 C4.12087869 0.40926535 6.36263782 1.7426242 9.5 4.375 C10.36109375 5.08398438 11.2221875 5.79296875 12.109375 6.5234375 C14.20613004 8.31984654 16.27341591 10.13347189 18.328125 11.9765625 C18.89595703 12.47752441 19.46378906 12.97848633 20.04882812 13.49462891 C21.16355753 14.48105564 22.26700608 15.48041361 23.35742188 16.49365234 C25.96728906 18.79805755 27.65884906 19.95247649 31.140625 20.4375 C33.85865798 20.0216261 35.67270459 19.43218179 38 18 C50.76628159 29.05140794 50.76628159 29.05140794 51.32421875 33.703125 C50.94041422 35.32189238 50.53923652 36.93663577 50.12109375 38.546875 C49.89347485 43.15799341 53.40285355 45.92229952 56.33984375 49.16796875 C57.65662109 50.56982422 57.65662109 50.56982422 59 52 C88.97344222 86.38553291 111.11965896 130.02002266 111.24023438 176.3059082 C111.24987279 178.53310483 111.28093614 180.75934967 111.3125 182.98632812 C111.38343204 192.71291769 110.28098408 201.53521865 108 211 C107.77707275 211.97187256 107.55414551 212.94374512 107.32446289 213.94506836 C105.98703121 219.60229639 103.95579792 224.98307824 101.8125 230.375 C101.55758789 231.03419434 101.30267578 231.69338867 101.04003906 232.37255859 C100.1120537 234.62942336 99.06654061 236.80510618 98 239 C97.33738159 240.54022827 97.33738159 240.54022827 96.66137695 242.11157227 C90.88685248 253.60455788 82.00499388 256.6313892 70.5625 261.1875 C68.6572892 261.98088981 66.75382661 262.77848952 64.85205078 263.58007812 C60.90615746 265.23911596 56.95288595 266.87844487 52.99365234 268.50537109 C47.07591081 270.95080331 41.21416966 273.51252919 35.36328125 276.11328125 C33.96756645 276.73314156 33.96756645 276.73314156 32.5436554 277.36552429 C30.71109465 278.18019395 28.87873892 278.99532497 27.04660034 279.8109436 C22.81343401 281.6950104 18.57741786 283.57222408 14.3359375 285.4375 C13.26506645 285.9143499 13.26506645 285.9143499 12.17256165 286.40083313 C7.20671844 288.57900283 2.16829234 290.36223048 -3 292 C-3.82787214 287.2785417 -4.36738844 282.79225803 -4 278 C-2.40910914 275.83358097 -0.83395406 274.98585051 1.48828125 273.6484375 C19.11432336 262.08049073 30.3012579 234.45060685 35 215 C35.28746094 213.81148437 35.57492187 212.62296875 35.87109375 211.3984375 C46.40845602 165.11471229 32.50778049 117.94132013 8.35302734 78.296875 C-1.18742845 63.32154625 -12.41580282 49.57281957 -24.5625 36.6484375 C-26.30457916 34.75560149 -27.94798639 32.8678127 -29.5703125 30.87890625 C-31.57769279 28.50038652 -33.49510767 26.54245192 -35.875 24.5625 C-39.2510632 21.69061259 -42.38270811 18.67163077 -45.45703125 15.48046875 C-48.79127625 12.28128177 -51.21074153 11.69100648 -55.6875 11.375 C-56.68136719 11.30023438 -57.67523438 11.22546875 -58.69921875 11.1484375 C-59.45847656 11.09945312 -60.21773438 11.05046875 -61 11 C-61 10.67 -61 10.34 -61 10 C-59.93023926 9.97812622 -59.93023926 9.97812622 -58.83886719 9.95581055 C-27.87982101 10.94659934 -27.87982101 10.94659934 0 0 Z " fill="#E7AD4C" transform="translate(333,120)"/>
<path d="M0 0 C0.84812759 -0.00619858 1.69625519 -0.01239716 2.57008362 -0.01878357 C4.36124526 -0.0258775 6.15247289 -0.0227151 7.94360352 -0.01000977 C10.67913697 0.00384411 13.41124047 -0.03020234 16.14648438 -0.06835938 C17.88932375 -0.06931074 19.6321674 -0.06745079 21.375 -0.0625 C22.18972275 -0.07575821 23.0044455 -0.08901642 23.84385681 -0.10267639 C27.80453917 -0.03800105 29.84646647 0.31166985 33.27124023 2.45288086 C36.13936025 6.9568994 35.92745276 10.77372738 35.85546875 16.01171875 C35.86347504 17.01854706 35.87148132 18.02537537 35.87973022 19.06271362 C35.90278731 22.27268913 35.89333326 25.48139665 35.87890625 28.69140625 C35.87506344 31.90831847 35.87844375 35.12467324 35.89950562 38.34152222 C35.91163111 40.34142704 35.9088665 42.34148841 35.88980103 44.34133911 C35.89345673 45.24592865 35.89711243 46.15051819 35.90087891 47.08251953 C35.89690094 47.87796173 35.89292297 48.67340393 35.88882446 49.49295044 C36.35043219 52.11461843 37.16601467 52.9588908 39.25390625 54.56640625 C40.24390625 54.89640625 41.23390625 55.22640625 42.25390625 55.56640625 C42.42845646 58.81572552 42.53482378 62.06384073 42.62890625 65.31640625 C42.67917969 66.23679687 42.72945312 67.1571875 42.78125 68.10546875 C42.80058594 68.99492187 42.81992188 69.884375 42.83984375 70.80078125 C42.87126465 71.61772461 42.90268555 72.43466797 42.93505859 73.27636719 C42.71027832 74.03208008 42.48549805 74.78779297 42.25390625 75.56640625 C40.76978241 76.31697296 40.76978241 76.31697296 39.25567627 77.08270264 C36.15579484 79.16336551 36.15579484 79.16336551 35.69856453 81.59247971 C35.50155976 84.2760451 35.49263381 86.90520129 35.54443359 89.59570312 C35.54022903 90.61398697 35.53602448 91.63227081 35.5316925 92.68141174 C35.52397742 96.04992763 35.55758856 99.41680714 35.58984375 102.78515625 C35.58875031 105.12398638 35.58444472 107.46281703 35.57705688 109.80163574 C35.56363267 115.9619477 35.58250942 122.12167759 35.61151123 128.28192139 C35.65683461 138.142539 35.672529 148.00284381 35.65196609 157.86354065 C35.65233985 161.31164135 35.67814209 164.75893255 35.70565796 168.20690918 C35.70634269 170.31697583 35.7060402 172.42704311 35.70458984 174.53710938 C35.71904648 175.49827164 35.73350311 176.4594339 35.74839783 177.44972229 C35.71013459 183.89672889 35.71013459 183.89672889 33.4863739 187.16088867 C31.08949698 188.66991508 29.88651441 189.07142933 27.08374023 189.08398438 C26.2728746 189.09659302 25.46200897 189.10920166 24.62657166 189.12219238 C23.32641869 189.110047 23.32641869 189.110047 22 189.09765625 C21.10273697 189.10148315 20.20547394 189.10531006 19.28102112 189.10925293 C17.38728715 189.11197119 15.49351558 189.10461596 13.59985352 189.08789062 C10.69788216 189.06645409 7.79837942 189.08770739 4.89648438 189.11328125 C3.05598411 189.11063845 1.21548539 189.10551446 -0.625 189.09765625 C-1.49379288 189.10575317 -2.36258575 189.1138501 -3.25770569 189.12219238 C-4.46927589 189.10327942 -4.46927589 189.10327942 -5.70532227 189.08398438 C-6.41495621 189.080802 -7.12459015 189.07761963 -7.85572815 189.07434082 C-10.67415942 188.31703828 -11.29142253 187.07389043 -12.74609375 184.56640625 C-13.12641048 181.27426147 -13.12641048 181.27426147 -13.1337738 177.27880859 C-13.13915934 176.54317373 -13.14454488 175.80753887 -13.15009362 175.04961205 C-13.1644056 172.58368597 -13.15726172 170.11829425 -13.15014648 167.65234375 C-13.15584833 165.88486295 -13.16281186 164.11738584 -13.17094421 162.34991455 C-13.18891014 157.54833012 -13.18770094 152.7469281 -13.18200183 147.94532013 C-13.17891531 143.93913387 -13.18499635 139.93298292 -13.19104058 135.92680168 C-13.20509512 126.47786405 -13.20351644 117.02901682 -13.19213867 107.58007812 C-13.18065275 97.82563524 -13.19473899 88.07146714 -13.22153515 78.31706047 C-13.24366998 69.94669085 -13.25033465 61.57640763 -13.24445873 53.20601082 C-13.24108309 48.20471747 -13.24354459 43.20360034 -13.26070976 38.20233154 C-13.27614184 33.50072061 -13.2722651 28.79951786 -13.25340462 24.09792328 C-13.24970852 22.37093943 -13.2528568 20.64392559 -13.26329041 18.9169693 C-13.27643275 16.56217273 -13.26501457 14.20874102 -13.24729919 11.85400391 C-13.24708991 10.53550446 -13.24688063 9.217005 -13.246665 7.85855103 C-12.74609375 4.56640625 -12.74609375 4.56640625 -10.96194553 2.14427185 C-7.5509988 -0.28459797 -4.03523153 -0.0245048 0 0 Z " fill="#3F6F92" transform="translate(35.74609375,298.43359375)"/>
<path d="M0 0 C3.83084349 2.61193874 6.65161815 5.67823629 8.75 9.875 C9.24803053 14.87163418 9.36402292 19.38380147 7.4375 24.0625 C0.50831765 31.3139699 -8.34430934 36.24644049 -16.86865234 41.39208984 C-22.96712447 45.07364446 -28.99586144 48.85416616 -35 52.6875 C-35.92208252 53.27611816 -36.84416504 53.86473633 -37.79418945 54.47119141 C-39.67490979 55.6725951 -41.55536124 56.87441983 -43.43554688 58.07666016 C-48.03604812 61.01622402 -52.64329282 63.94517527 -57.25 66.875 C-62.78592372 70.39723332 -68.32137545 73.92020384 -73.85546875 77.4453125 C-84.08743295 83.96183879 -94.3283675 90.46362772 -104.58984375 96.93359375 C-107.77311685 98.94100886 -110.95233601 100.95465194 -114.12890625 102.97265625 C-118.09138756 105.48883782 -122.06121168 107.99295822 -126.03808594 110.48632812 C-127.47038965 111.38554926 -128.90085525 112.28770765 -130.32910156 113.19335938 C-146.82298725 123.62843173 -161.83446042 128.18083797 -181.3996582 128.16552734 C-182.65503387 128.17224457 -183.91040955 128.17896179 -185.2038269 128.18588257 C-188.61111466 128.20150331 -192.01815848 128.20823027 -195.42546487 128.20951414 C-197.5637509 128.21094619 -199.70201216 128.21523539 -201.84029198 128.22050858 C-209.3270566 128.23894862 -216.81375053 128.24718659 -224.30053711 128.24560547 C-231.23635376 128.24440498 -238.17185881 128.26550464 -245.1075967 128.2970928 C-251.09954556 128.32339249 -257.09139346 128.33396711 -263.08339947 128.33269465 C-266.64576716 128.33218912 -270.20785717 128.33764257 -273.7701664 128.35905075 C-301.90437352 128.5160889 -301.90437352 128.5160889 -314.25 123.875 C-315.19654953 123.55421478 -316.14309906 123.23342957 -317.11833191 122.90292358 C-319.79850833 121.9772243 -322.44344225 120.98663086 -325.08984375 119.96875 C-326.04870987 119.60687592 -327.00757599 119.24500183 -327.99549866 118.87216187 C-331.06209264 117.71315641 -334.12478256 116.54420577 -337.1875 115.375 C-339.31287595 114.56974882 -341.43852964 113.76523034 -343.56445312 112.96142578 C-347.79927179 111.3594118 -352.03275472 109.75394775 -356.26513672 108.14550781 C-363.89230262 105.248884 -371.53190207 102.38573127 -379.17337036 99.52709961 C-382.42874485 98.3088996 -385.68308517 97.08794883 -388.9375 95.8671875 C-390.690625 95.20976562 -392.44375 94.55234375 -394.25 93.875 C-394.25 87.275 -394.25 80.675 -394.25 73.875 C-373.90279687 81.30259465 -353.59214227 88.82553562 -333.2971344 96.39456177 C-330.75437149 97.34181655 -328.21052043 98.28609867 -325.66650391 99.22998047 C-323.06906339 100.19423851 -320.47868437 101.17121122 -317.89208984 102.16455078 C-316.97250488 102.51372559 -316.05291992 102.86290039 -315.10546875 103.22265625 C-314.38383545 103.50246338 -313.66220215 103.78227051 -312.91870117 104.07055664 C-304.20609197 106.69685317 -295.84115262 107.17225319 -286.77661133 107.16552734 C-285.46300629 107.17224457 -284.14940125 107.17896179 -282.79598999 107.18588257 C-279.21922379 107.20342071 -275.64255351 107.20823281 -272.06574845 107.20951414 C-269.82261255 107.2109435 -267.57950042 107.21522787 -265.33637047 107.22050858 C-257.48651987 107.23897013 -249.63673683 107.24718426 -241.78686523 107.24560547 C-234.50913784 107.24440584 -227.23170784 107.2654829 -219.95405561 107.2970928 C-213.67340276 107.32338463 -207.39284627 107.33396736 -201.11213893 107.33269465 C-197.37536578 107.33218869 -193.6388572 107.33766574 -189.90213966 107.35905075 C-186.38148909 107.37865208 -182.86134953 107.37841141 -179.34067917 107.36401749 C-177.46023276 107.36098478 -175.57978505 107.37745213 -173.69941711 107.39489746 C-154.7485897 107.25771821 -139.76223348 99.4425335 -124.1875 89.25 C-121.98208192 87.82243596 -119.77635004 86.3953566 -117.5703125 84.96875 C-115.95817871 83.92267578 -115.95817871 83.92267578 -114.31347656 82.85546875 C-110.08357131 80.12093006 -105.82639351 77.43111575 -101.5625 74.75 C-91.98809214 68.71807138 -82.43100376 62.65839859 -72.90185547 56.55517578 C-71.03126262 55.36999626 -69.14884522 54.20338006 -67.25830078 53.05029297 C-66.27845215 52.44717285 -65.29860352 51.84405273 -64.2890625 51.22265625 C-63.39912598 50.68261963 -62.50918945 50.14258301 -61.59228516 49.58618164 C-57.13348055 46.32875393 -54.962013 42.01103901 -53.25 36.875 C-53.15476082 34.75172644 -53.12013638 32.62540289 -53.125 30.5 C-53.12113281 28.81777344 -53.12113281 28.81777344 -53.1171875 27.1015625 C-53.23624175 24.20924463 -53.45128182 21.65534811 -54.25 18.875 C-54.91 18.545 -55.57 18.215 -56.25 17.875 C-46.60017161 13.50346932 -36.93392472 9.17045182 -27.25 4.875 C-26.35877441 4.47748535 -25.46754883 4.0799707 -24.54931641 3.67041016 C-9.11714902 -3.1559362 -9.11714902 -3.1559362 0 0 Z " fill="#FDC9BC" transform="translate(480.25,369.125)"/>
<path d="M0 0 C3.40183363 1.23045046 4.73895626 2.1982991 6.9375 5.0625 C7.328125 8.515625 7.328125 8.515625 7.1875 12.3125 C7.15140625 13.57578125 7.1153125 14.8390625 7.078125 16.140625 C7.03171875 17.10484375 6.9853125 18.0690625 6.9375 19.0625 C7.783125 19.00707031 8.62875 18.95164063 9.5 18.89453125 C16.66885381 19.24482752 24.94019164 23.25926397 30.75 27.5 C33.57579001 30.81021116 34.17024204 32.71798198 33.9375 37.0625 C31.5813891 40.4181731 30.09005002 41.81194565 26.0625 42.6875 C22.99683127 42.07436625 22.0145959 41.56565139 19.625 39.75 C15.38117543 36.37171905 15.38117543 36.37171905 6.9375 34.0625 C6.9375 49.9025 6.9375 65.7425 6.9375 82.0625 C10.2375 83.0525 13.5375 84.0425 16.9375 85.0625 C28.79441517 89.86599998 36.38352661 96.09950847 41.60546875 107.98046875 C45.53852456 118.55300297 44.0377451 131.17600594 39.48828125 141.26171875 C33.89821036 151.35764022 26.47143185 158.44001514 15.9375 163.0625 C14.57625 163.68125 14.57625 163.68125 13.1875 164.3125 C10.9375 165.0625 10.9375 165.0625 6.9375 165.0625 C6.99550781 166.08730469 7.05351562 167.11210937 7.11328125 168.16796875 C7.16019957 169.52860011 7.20569752 170.88928096 7.25 172.25 C7.3128418 173.26030273 7.3128418 173.26030273 7.37695312 174.29101562 C7.47327103 178.24004988 7.08209638 179.8790858 4.609375 183.015625 C1.9375 185.0625 1.9375 185.0625 -1.125 185.625 C-4.82390988 184.91669811 -5.79143196 184.04774038 -8.0625 181.0625 C-8.5115016 178.35697755 -8.75619634 176.02019409 -8.8125 173.3125 C-8.84214844 172.61511719 -8.87179687 171.91773438 -8.90234375 171.19921875 C-8.97268458 169.48759187 -9.01989946 167.77504185 -9.0625 166.0625 C-9.98289062 165.99933594 -10.90328125 165.93617188 -11.8515625 165.87109375 C-23.8047683 164.71472455 -34.8686428 161.49966643 -43.0625 152.0625 C-43.7392545 148.37794773 -43.56041771 146.81933492 -41.5 143.6875 C-38.13774493 141.44599662 -36.06386706 141.73112385 -32.0625 142.0625 C-28.66796875 143.5234375 -28.66796875 143.5234375 -25.25 145.4375 C-19.104997 148.87417601 -15.54600437 149.56579913 -8.0625 151.0625 C-8.0625 131.2625 -8.0625 111.4625 -8.0625 91.0625 C-11.0325 90.0725 -14.0025 89.0825 -17.0625 88.0625 C-26.74392187 83.14712514 -34.68386866 76.462297 -38.40234375 66.03125 C-40.88413974 54.87051063 -39.65806945 44.36064527 -33.5546875 34.66796875 C-27.8068202 26.6075874 -20.43101005 21.96996864 -11.0625 19.0625 C-10.0725 19.0625 -9.0825 19.0625 -8.0625 19.0625 C-8.12050781 18.10988281 -8.17851562 17.15726563 -8.23828125 16.17578125 C-8.65308473 4.64424437 -8.65308473 4.64424437 -5.9375 1.625 C-3.0625 0.0625 -3.0625 0.0625 0 0 Z " fill="#030201" transform="translate(283.0625,154.9375)"/>
<path d="M0 0 C2.69851738 1.15594956 5.25991977 2.43716254 7.8359375 3.84375 C13.36369477 6.79720876 18.88828675 6.85869683 24.859375 5.2109375 C28.66080064 3.86502734 32.15386692 2.54044171 35.5625 0.36328125 C39.50410974 -1.84124086 42.75281525 -1.15644577 47 0 C49.42743683 1.14963408 51.68180751 2.4181089 53.95703125 3.84375 C60.31941802 7.44464194 67.25815057 6.339475 74 4.5 C75.66963368 4.00999881 77.33742523 3.51344221 79 3 C79.3469938 8.83720684 78.24753647 13.24535664 76.1875 18.6875 C75.73032593 19.91122314 75.73032593 19.91122314 75.26391602 21.15966797 C71.78918948 30.08059708 67.29978357 38.50071758 62.37207031 46.70043945 C61.43708358 48.26745726 60.54705405 49.86197346 59.69824219 51.47729492 C57.14664364 55.96616793 55.16899731 58.4193864 50.1484375 59.97265625 C48.23352472 60.38339019 46.3074101 60.74409062 44.375 61.0625 C43.3331958 61.25457031 42.2913916 61.44664063 41.21801758 61.64453125 C25.04825056 64.32414049 8.27485662 64.09444087 -7.9375 61.8125 C-8.69393799 61.71195313 -9.45037598 61.61140625 -10.22973633 61.5078125 C-15.31764391 60.6318659 -17.78843435 58.98677115 -21 55 C-22.52969867 52.74527359 -23.94588293 50.53446922 -25.3125 48.1875 C-25.69494873 47.5380542 -26.07739746 46.8886084 -26.47143555 46.21948242 C-42.98586558 17.78798377 -42.98586558 17.78798377 -42 3 C-41.45472656 3.2165625 -40.90945312 3.433125 -40.34765625 3.65625 C-31.39009634 6.96365674 -24.99853687 6.87504274 -16.20703125 3.09375 C-13.86644429 2.00478128 -13.86644429 2.00478128 -11.4375 0.1875 C-7.52263266 -1.71974306 -4.1318169 -1.09314211 0 0 Z " fill="#E6AC4C" transform="translate(265,16)"/>
<path d="M0 0 C1.26263672 0.24556641 1.26263672 0.24556641 2.55078125 0.49609375 C4.13247821 0.81341709 5.71127413 1.14594568 7.28515625 1.5 C24.44210459 4.65984085 42.26511046 3.60143931 59.37109375 0.75390625 C62.54625907 0.22872868 65.72054668 -0.28096089 68.91015625 -0.7109375 C69.98148804 -0.86054932 69.98148804 -0.86054932 71.07446289 -1.01318359 C73 -1 73 -1 76 0.8125 C79.30908932 4.43181644 79.27974154 7.00009494 79.21875 11.7421875 C78.91889867 14.83708155 78.00312491 16.63917422 76 19 C55.91319605 30.46236353 16.55841339 27.70024524 -5 22 C-9.19294502 20.69753647 -12.4245761 19.58945863 -15.5625 16.375 C-17.4675651 11.90223846 -17.56366578 8.60647486 -16 4 C-11.27361704 -2.05946534 -7.1203294 -1.41985889 0 0 Z " fill="#FBDC7B" transform="translate(249,90)"/>
<path d="M0 0 C3.46035476 1.45619035 6.7191681 3.1810932 10 5 C11.3314152 5.67048922 12.6644636 6.33775779 14 7 C12.18151687 12.94157856 10.01651814 18.410466 7.0625 23.875 C6.68061523 24.58897949 6.29873047 25.30295898 5.90527344 26.03857422 C-0.31482514 37.46349713 -7.35376396 48.47944896 -15 59 C-18.59153247 58.39967941 -18.91929238 58.10664935 -21.296875 54.96484375 C-22.12939443 53.63153031 -22.94617901 52.28830907 -23.75 50.9375 C-24.18393066 50.2244873 -24.61786133 49.51147461 -25.06494141 48.77685547 C-42.25127668 20.08681427 -42.25127668 20.08681427 -42.0625 7.25 C-42.05347656 6.45078125 -42.04445312 5.6515625 -42.03515625 4.828125 C-42.02355469 4.22484375 -42.01195312 3.6215625 -42 3 C-41.45472656 3.2165625 -40.90945312 3.433125 -40.34765625 3.65625 C-31.39009634 6.96365674 -24.99853687 6.87504274 -16.20703125 3.09375 C-13.86644429 2.00478128 -13.86644429 2.00478128 -11.4375 0.1875 C-7.52061765 -1.72072473 -4.13436505 -1.08902045 0 0 Z " fill="#E8BA6A" transform="translate(265,16)"/>
<path d="M0 0 C9.09471322 2.72841397 14.63281426 4.62723506 19.4375 12.5625 C22.60267559 19.72867677 22.00128853 28.13615431 19.375 35.375 C15.28721441 44.13251288 9.90594239 48.36047175 1 52 C0.67 52 0.34 52 0 52 C0 34.84 0 17.68 0 0 Z " fill="#E7BA69" transform="translate(290,253)"/>
<path d="M0 0 C0 13.2 0 26.4 0 40 C-13.54759239 33.22620381 -13.54759239 33.22620381 -16 27 C-16.77695953 20.50179304 -16.6180757 13.63470806 -13 8 C-5.4038835 0 -5.4038835 0 0 0 Z " fill="#E3B667" transform="translate(275,190)"/>
</svg>
